<?xml version="1.0" standalone="no"?>
<!DOCTYPE svg PUBLIC "-//W3C//DTD SVG 1.1//EN" "http://www.w3.org/Graphics/SVG/1.1/DTD/svg11.dtd" >
<!--
2013-9-30: Created.
-->
<svg>
<metadata>
Created by iconfont
</metadata>
<defs>

<font id="iconfont" horiz-adv-x="1024" >
  <font-face
    font-family="iconfont"
    font-weight="500"
    font-stretch="normal"
    units-per-em="1024"
    ascent="896"
    descent="-128"
  />
    <missing-glyph />
    
    <glyph glyph-name="wangyiyun" unicode="&#58886;" d="M350.37500029 834h323.24999942C774.50000029 834 811.99999971 823.49999971 846.87499971 804.00000029a204.37499971 204.37499971 0 0 0 85.12500058-85.12500058c19.50000029-34.875 29.99999971-72.37500029 29.99999971-173.25v-323.24999942c0-100.125-10.50000029-136.50000029-29.99999971-173.25a204.37499971 204.37499971 0 0 0-85.12500058-85.12500058c-37.50000029-19.50000029-73.125-29.99999971-173.25-29.99999971H350.37500029C249.49999971-66 212.00000029-55.49999971 177.12500029-36.00000029A204.37499971 204.37499971 0 0 0 91.99999971 49.12500029C72.50000029 84.00000029 62 121.49999971 62 222.37500029V545.62499971C62 646.50000029 72.50000029 683.99999971 91.99999971 718.87499971A204.37499971 204.37499971 0 0 0 177.12500029 804.00000029C212.00000029 823.49999971 249.49999971 834 350.37500029 834zM645.12500029 718.125a156.75000029 156.75000029 0 0 0 58.87499942-28.50000029 43.875 43.875 0 0 0 15.00000029-18.37499942 37.50000029 37.50000029 0 0 0-3.375-34.875 37.50000029 37.50000029 0 0 0-51.37499971-11.62500029c-4.12499971 2.62500029-7.12500029 6.37499971-11.25 8.62499971a67.87500029 67.87500029 0 0 1-37.50000029 12.375 37.50000029 37.50000029 0 0 1-24.00000029-12.375 26.62499971 26.62499971 0 0 1-7.12499942-23.99999942l13.87499942-52.12500029a200.99999971 200.99999971 0 0 0 94.5-27.74999971 269.62499971 269.62499971 0 0 0 72.37500029-64.87500058 225 225 0 0 0 37.50000029-74.99999971 249.37499971 249.37499971 0 0 0 9.37499942-86.625 275.24999971 275.24999971 0 0 0-14.99999942-72 281.99999971 281.99999971 0 0 0-112.5-137.99999971 299.99999971 299.99999971 0 0 0-124.12500029-43.50000058 310.5 310.5 0 0 0-91.125 0 299.99999971 299.99999971 0 0 0-164.25 87.00000029 322.49999971 322.49999971 0 0 0-85.12499971 297.37500029 316.50000029 316.50000029 0 0 0 189.74999971 225 50.24999971 50.24999971 0 0 0 42.00000029-2.25 37.50000029 37.50000029 0 0 0 15.37499971-35.25000029 37.50000029 37.50000029 0 0 0-24.00000029-30.75000029 241.49999971 241.49999971 0 0 1-153.37499942-193.5 245.99999971 245.99999971 0 0 1 13.5-119.25 242.25000029 242.25000029 0 0 1 112.5-129.74999942 219.375 219.375 0 0 1 102.375-24.75 255.75000029 255.75000029 0 0 1 85.87499942 15.37499971A203.625 203.625 0 0 1 714.87500029 233.99999971a166.5 166.5 0 0 1 14.24999971 33.75 187.49999971 187.49999971 0 0 1 0 104.25000058 158.24999971 158.24999971 0 0 1-47.62500029 73.125 208.50000029 208.50000029 0 0 1-31.5 22.87499942 120.375 120.375 0 0 1-31.5 12.00000058c7.49999971-29.99999971 15.75-60.00000029 23.625-90.37500029l3.75000029-21.75000029a127.87499971 127.87499971 0 0 0-103.12499971-129.74999942 122.625 122.625 0 0 0-90 16.875A135.37500029 135.37500029 0 0 0 399.5 323.99999971a163.87499971 163.87499971 0 0 0-9 49.12500058 169.49999971 169.49999971 0 0 0 28.50000029 103.5 187.49999971 187.49999971 0 0 0 104.24999971 72l-9 34.875a103.5 103.5 0 0 0 5.625 74.99999971 108.37500029 108.37500029 0 0 0 27 34.12500029A110.25 110.25 0 0 0 586.99999971 717.37500029a112.5 112.5 0 0 0 58.12500058 0.74999971zM490.24999971 444.37499971a87.75 87.75 0 0 1-22.12499971-41.99999942 112.5 112.5 0 0 1 0-43.50000058 64.87499971 64.87499971 0 0 1 24.75-40.5 47.62500029 47.62500029 0 0 1 37.50000029-7.12499942 52.49999971 52.49999971 0 0 1 42.37499971 48.74999942 135 135 0 0 1-3.375 17.25000029l-25.875 97.875a119.62500029 119.62500029 0 0 1-53.25000029-30.75000029z"  horiz-adv-x="1024" />

    
    <glyph glyph-name="rili" unicode="&#59037;" d="M215.43 667.141h73.598c11.068 0 20.149 9.049 20.149 20.116v161.9c0 11.069-9.081 20.118-20.149 20.118H215.43c-11.197 0-20.116-9.048-20.116-20.118v-161.901c0-11.066 8.919-20.115 20.116-20.115zM733.969 667.141H807.6c11.1 0 20.115 9.049 20.115 20.116v161.9c0 11.069-9.016 20.118-20.115 20.118h-73.631c-11.1 0-20.246-9.048-20.246-20.118v-161.901c0-11.066 9.146-20.115 20.246-20.115zM894.219 791.871h-25.847v-104.615c0-33.46-27.275-60.868-60.772-60.868h-73.631c-33.462 0-60.871 27.406-60.871 60.868V791.871H349.802v-104.615c0-33.46-27.278-60.868-60.773-60.868H215.43c-33.527 0-60.837 27.406-60.837 60.868V791.871h-26.106c-64.517 0-117.021-52.47-117.021-117.049v-659.783c0-64.774 52.504-117.243 117.021-117.243h765.732c64.68 0 117.247 52.469 117.247 117.243V674.824c0 64.577-52.568 117.047-117.247 117.047z m43.097-776.833c0-23.826-19.305-43.093-43.098-43.093H128.487c-23.599 0-42.837 19.267-42.837 43.093V457.521h851.668l-0.002-442.483z"  horiz-adv-x="1024" />

    
    <glyph glyph-name="Kge" unicode="&#58918;" d="M195.312 196.848l-47.424-47.92c-10.528-10.544-10.384-27.584 0.16-38.064l30.752-30.416c10.512-10.448 27.584-10.384 38.064 0.192l47.456 47.872-69.008 68.336zM620 410.88l67.6 57.872-149.968 148.576-57.296-68.112zM586.896 746.864a163.838 163.838 0 0 1-29.232-105.76l-1.408-1.68 153.248-151.872 1.632 1.424c36.88-2.288 74.224 7.904 105.472 30.272L586.896 746.864zM838.688 537.872c63.216 64.528 62.592 168.096-1.68 231.68-64.288 63.68-167.776 63.36-231.68-0.416l233.36-231.264zM461.808 527.152L210.144 228l91.12-90.336 296.864 254.432zM163.632-30.24c-3.584 3.552-7.104 7.424-10.56 11.584-42.592 51.664-8.976 131.728-7.664 134.64l39.808-29.872c-0.192-0.448-19.296-45.664 4.512-74.528 33.232-40.352 58.976-23.296 67.424-17.664 2.256 1.552 6 4.8 11.056 9.088C510.032 208 710.72 104.496 836.4-18.416l-33.216-33.936c-244.624 239.2-440.016 73.6-504.224 19.088-7.088-5.968-11.744-9.936-15.712-12.512-39.744-26.208-83.52-20.176-119.616 15.536"  horiz-adv-x="1024" />

    
    <glyph glyph-name="diantai" unicode="&#58906;" d="M877.42 648.232H272.421l130.44 130.511c15.98 15.91 15.98 41.775 0 57.686-15.91 15.91-41.704 15.91-57.684 0L157.611 648.861C136.55 630 136.55 597.263 136.55 585.488v-473.39c0-22.43 18.363-40.794 40.827-40.794H877.42c22.431 0 40.794 18.363 40.794 40.793v495.34c0 22.43-18.364 40.795-40.794 40.795zM352.048 249.059c-58.494 0-105.84 47.382-105.84 105.977 0 58.315 47.347 105.768 105.84 105.768 58.456 0 105.837-47.453 105.837-105.768 0-58.596-47.382-105.977-105.837-105.977z m439.44-7.991H579.565c-13.494 0-24.463 11.003-24.463 24.531 0 13.458 10.971 24.463 24.463 24.463h211.923c13.53 0 24.462-11.005 24.462-24.463 0-13.528-10.934-24.531-24.462-24.531z m0 165.416H579.565c-13.494 0-24.463 10.936-24.463 24.463 0 13.458 10.971 24.533 24.463 24.533h211.923c13.53 0 24.462-11.074 24.462-24.533 0-13.529-10.934-24.463-24.462-24.463z"  horiz-adv-x="1024" />

    
    <glyph glyph-name="bingzhuangtu" unicode="&#59160;" d="M969.6 476.8C931.2 659.2 787.2 803.2 604.8 841.6h-16c-12.8-3.2-22.4-16-22.4-32v-342.4c0-19.2 12.8-32 32-32h342.4c16 0 25.6 9.6 32 22.4-3.2 6.4 0 12.8-3.2 19.2z m-339.2 25.6V768c128-41.6 227.2-140.8 268.8-268.8h-268.8zM918.4 406.4h-384v384c0 19.2-12.8 32-32 32-246.4 0-448-201.6-448-448s201.6-448 448-448 448 201.6 448 448c0 16-16 32-32 32z m-416-416c-211.2 0-384 172.8-384 384 0 201.6 156.8 364.8 352 380.8v-380.8c0-19.2 12.8-32 32-32h380.8c-16-198.4-182.4-352-380.8-352z"  horiz-adv-x="1024" />

    
    <glyph glyph-name="biaoqian" unicode="&#59161;" d="M460.8-86.4c-25.6 0-48 9.6-67.2 28.8L70.4 265.6c-38.4 38.4-38.4 99.2 0 134.4L521.6 854.4c3.2 6.4 12.8 9.6 22.4 9.6h352c54.4 0 96-41.6 96-96v-352c0-9.6-3.2-19.2-9.6-25.6l-451.2-448c-19.2-19.2-44.8-28.8-70.4-28.8z m96 886.4L115.2 355.2c-12.8-12.8-12.8-32 0-44.8l326.4-326.4c12.8-12.8 32-12.8 44.8 0L928 428.8V768c0 19.2-12.8 32-32 32H556.8zM608 316.8c-41.6 0-83.2 16-112 48-28.8 28.8-48 70.4-48 112s16 83.2 48 112c60.8 60.8 163.2 60.8 227.2 0 28.8-28.8 48-70.4 48-112s-16-83.2-48-112c-32-32-73.6-48-115.2-48z m0 256c-25.6 0-51.2-9.6-67.2-28.8s-28.8-41.6-28.8-67.2 9.6-51.2 28.8-67.2c35.2-35.2 99.2-35.2 134.4 0 19.2 19.2 28.8 41.6 28.8 67.2s-9.6 51.2-28.8 67.2-41.6 28.8-67.2 28.8z"  horiz-adv-x="1024" />

    
    <glyph glyph-name="bangzhu" unicode="&#59162;" d="M512 864C246.4 864 32 649.6 32 384s214.4-480 480-480 480 214.4 480 480S777.6 864 512 864z m0-896C281.6-32 96 153.6 96 384S281.6 800 512 800s416-185.6 416-416-185.6-416-416-416zM512 195.2m-38.4 0a38.4 38.4 0 1 1 76.8 0 38.4 38.4 0 1 1-76.8 0ZM515.2 611.2c-70.4 0-115.2-48-115.2-124.8v-3.2c0-19.2 12.8-32 32-32s32 12.8 32 32c0 48 25.6 64 48 64 19.2 0 41.6-12.8 44.8-38.4 3.2-25.6-12.8-41.6-32-57.6-44.8-41.6-44.8-96-44.8-137.6v-3.2c0-19.2 12.8-32 32-32s32 12.8 32 32c0 22.4 0 70.4 28.8 102.4 22.4 22.4 48 51.2 48 96 0 28.8-9.6 54.4-28.8 73.6-16 19.2-44.8 28.8-76.8 28.8z"  horiz-adv-x="1024" />

    
    <glyph glyph-name="bukejian" unicode="&#59163;" d="M976 374.4L896 454.4c35.2 38.4 64 83.2 86.4 134.4 6.4 16 0 35.2-16 41.6-16 6.4-35.2 0-41.6-16-70.4-163.2-233.6-268.8-409.6-268.8S172.8 448 102.4 611.2c-6.4 12.8-19.2 19.2-28.8 19.2-3.2 0-9.6 0-12.8-3.2-16-6.4-25.6-22.4-19.2-41.6 22.4-48 51.2-92.8 86.4-131.2l-80-80c-12.8-12.8-12.8-32 0-44.8s32-12.8 44.8 0l80 80c32-28.8 70.4-54.4 108.8-73.6l-51.2-89.6c-9.6-16-3.2-35.2 12.8-44.8 16-9.6 35.2-3.2 44.8 12.8l54.4 96c44.8-16 89.6-25.6 137.6-28.8v-112c0-19.2 12.8-32 32-32s32 12.8 32 32v112c48 3.2 92.8 12.8 137.6 28.8l54.4-96c9.6-16 28.8-19.2 44.8-12.8 16 9.6 19.2 28.8 12.8 44.8l-51.2 89.6c38.4 19.2 76.8 44.8 108.8 73.6l80-80c12.8-12.8 32-12.8 44.8 0s12.8 32 0 44.8z"  horiz-adv-x="1024" />

    
    <glyph glyph-name="chaolianjie" unicode="&#59164;" d="M611.2 528l-294.4-294.4c-6.4-6.4-9.6-16-9.6-22.4s3.2-16 9.6-22.4 16-9.6 22.4-9.6 16 3.2 22.4 9.6l294.4 294.4c6.4 6.4 9.6 16 9.6 22.4s-3.2 16-9.6 22.4c-12.8 12.8-32 12.8-44.8 0zM608 140.8l-99.2-99.2c-96-96-249.6-96-342.4-3.2-92.8 92.8-92.8 246.4 3.2 342.4L268.8 480c12.8 12.8 12.8 32 0 44.8s-32 12.8-44.8 0l-99.2-99.2C3.2 304 3.2 112 121.6-6.4 179.2-64 259.2-96 336-96c80 0 156.8 28.8 217.6 89.6l99.2 99.2c12.8 12.8 12.8 32 0 44.8s-32 16-44.8 3.2zM902.4 774.4c-57.6 57.6-131.2 86.4-214.4 86.4h-3.2c-83.2 0-160-35.2-217.6-92.8l-96-96c-12.8-12.8-12.8-32 0-44.8s32-12.8 44.8 0l96 96c48 48 108.8 73.6 172.8 73.6h3.2c64 0 121.6-25.6 166.4-70.4 92.8-92.8 92.8-246.4-3.2-345.6l-96-96c-12.8-12.8-12.8-32 0-44.8 6.4-6.4 16-9.6 22.4-9.6s16 3.2 22.4 9.6l96 96c121.6 124.8 124.8 320 6.4 438.4z"  horiz-adv-x="1024" />

    
    <glyph glyph-name="bianji" unicode="&#59165;" d="M444.8 380.8l-25.6-83.2c0-3.2 3.2-6.4 6.4-6.4l89.6 25.6L902.4 704c3.2 3.2 3.2 6.4 0 9.6l-60.8 60.8c-3.2 3.2-6.4 3.2-9.6 0L448 387.2c-3.2-3.2-3.2-3.2-3.2-6.4zM908.8 729.6c3.2-3.2 12.8-6.4 16 0l28.8 28.8c3.2 3.2 3.2 12.8 0 16l-51.2 51.2c-3.2 3.2-12.8 6.4-16 0l-28.8-28.8c-3.2-3.2-3.2-12.8 0-16l51.2-51.2zM928 544c-19.2 0-32-12.8-32-32v-480c0-19.2-12.8-32-32-32H160c-19.2 0-32 12.8-32 32V736c0 19.2 12.8 32 32 32h480c19.2 0 32 12.8 32 32s-12.8 32-32 32H160C105.6 832 64 790.4 64 736v-704c0-54.4 41.6-96 96-96h704c54.4 0 96 41.6 96 96V512c0 19.2-12.8 32-32 32z"  horiz-adv-x="1024" />

    
    <glyph glyph-name="dianzan" unicode="&#59166;" d="M934.4 528c-22.4 25.6-54.4 38.4-89.6 38.4h-310.4v128c0 76.8-67.2 137.6-147.2 137.6h-51.2c-19.2 0-32-12.8-32-32v-51.2c3.2-89.6 3.2-166.4-41.6-169.6-9.6 0-32-3.2-41.6-6.4H96c-19.2 0-32-12.8-32-32v-576c0-19.2 12.8-32 32-32h656c57.6 0 105.6 44.8 112 102.4 6.4 54.4 25.6 124.8 44.8 198.4 22.4 76.8 44.8 160 51.2 220.8 3.2 25.6-6.4 51.2-25.6 73.6zM192 0H128V512h64v-512z m656 252.8c-19.2-73.6-41.6-147.2-48-204.8-3.2-22.4-19.2-48-51.2-48H256V515.2h9.6c112 6.4 105.6 144 102.4 236.8V768h19.2c44.8 0 83.2-32 83.2-73.6v-160c0-19.2 12.8-32 32-32h342.4c16 0 32-6.4 41.6-16 3.2-3.2 9.6-12.8 9.6-22.4-6.4-57.6-28.8-134.4-48-211.2z"  horiz-adv-x="1024" />

    
    <glyph glyph-name="dianhua" unicode="&#59167;" d="M649.6-92.8c-48 0-102.4 19.2-169.6 76.8-73.6 67.2-137.6 163.2-179.2 230.4l-32 54.4c-150.4 259.2-160 441.6-32 518.4l121.6 70.4c16 9.6 35.2 3.2 44.8-12.8l147.2-252.8c3.2-6.4 6.4-16 3.2-25.6s-6.4-16-16-19.2l-67.2-38.4c-12.8-9.6-19.2-25.6-9.6-41.6l108.8-185.6c9.6-12.8 25.6-19.2 41.6-9.6l67.2 38.4c6.4 3.2 16 6.4 25.6 3.2 9.6-3.2 16-6.4 19.2-16l147.2-252.8c9.6-16 3.2-35.2-12.8-44.8L736-70.4c-22.4-12.8-51.2-22.4-86.4-22.4zM364.8 784L272 732.8c-131.2-76.8-6.4-326.4 54.4-428.8l32-54.4c38.4-64 96-153.6 166.4-214.4 102.4-89.6 160-57.6 179.2-44.8l92.8 54.4-115.2 198.4-38.4-22.4c-44.8-25.6-102.4-9.6-128 35.2l-108.8 185.6c-25.6 44.8-9.6 102.4 35.2 128l38.4 16-115.2 198.4z"  horiz-adv-x="1024" />

    
    <glyph glyph-name="diqiu" unicode="&#59168;" d="M512-96c-137.6 0-262.4 57.6-348.8 150.4l-3.2 3.2C80 147.2 32 259.2 32 384c0 124.8 48 236.8 124.8 323.2l3.2 3.2C249.6 806.4 374.4 864 512 864s262.4-57.6 348.8-150.4l3.2-3.2c80-89.6 128-201.6 128-326.4 0-124.8-48-236.8-124.8-323.2 0-3.2-3.2-3.2-3.2-6.4-89.6-92.8-214.4-150.4-352-150.4z m32 288v-217.6c51.2 19.2 99.2 86.4 128 185.6-38.4 16-83.2 28.8-128 32z m-192-32c28.8-99.2 80-166.4 128-185.6V192c-44.8-3.2-89.6-16-128-32z m377.6-28.8c-16-51.2-38.4-96-64-131.2 48 19.2 92.8 48 131.2 83.2-22.4 16-41.6 32-67.2 48zM227.2 80c38.4-35.2 83.2-64 131.2-83.2-25.6 35.2-48 80-64 131.2-25.6-12.8-44.8-28.8-67.2-48z m521.6 115.2c32-19.2 64-41.6 92.8-67.2 48 64 80 140.8 86.4 224h-160c-3.2-57.6-9.6-108.8-19.2-156.8zM96 352c6.4-83.2 38.4-163.2 86.4-224 28.8 25.6 57.6 48 92.8 67.2-9.6 48-16 99.2-19.2 156.8H96z m448-96c51.2-3.2 99.2-16 144-32 6.4 38.4 12.8 83.2 16 131.2h-160V256z m-224 96c3.2-48 6.4-89.6 16-131.2 44.8 19.2 96 28.8 144 32v96h-160z m448 64h160c-6.4 83.2-38.4 163.2-86.4 224-28.8-25.6-57.6-48-92.8-67.2 9.6-48 16-99.2 19.2-156.8z m-224 0h160c-3.2 48-6.4 89.6-16 131.2-44.8-19.2-96-28.8-144-32V416z m-224 0h160v96c-51.2 3.2-99.2 16-144 32-9.6-38.4-12.8-80-16-128z m-224 0h160c3.2 57.6 9.6 108.8 19.2 156.8-32 19.2-64 41.6-92.8 67.2-48-60.8-80-140.8-86.4-224z m256 192c41.6-16 83.2-28.8 128-32V793.6c-51.2-19.2-99.2-86.4-128-185.6z m192 185.6V576c44.8 3.2 89.6 12.8 128 32-28.8 99.2-76.8 166.4-128 185.6zM227.2 688c19.2-19.2 41.6-35.2 64-51.2 16 51.2 38.4 96 64 131.2-44.8-16-89.6-44.8-128-80z m438.4 83.2c25.6-35.2 48-80 64-131.2 22.4 12.8 44.8 32 64 51.2-35.2 32-80 60.8-128 80z"  horiz-adv-x="1024" />

    
    <glyph glyph-name="dingdanliebiao" unicode="&#59169;" d="M496 576h-192c-19.2 0-32 12.8-32 32s12.8 32 32 32h192c19.2 0 32-12.8 32-32s-12.8-32-32-32zM720 352h-416c-19.2 0-32 12.8-32 32s12.8 32 32 32h416c19.2 0 32-12.8 32-32s-12.8-32-32-32zM720 128h-416c-19.2 0-32 12.8-32 32s12.8 32 32 32h416c19.2 0 32-12.8 32-32s-12.8-32-32-32zM800-96H224c-54.4 0-96 41.6-96 96V768c0 54.4 41.6 96 96 96h512c89.6 0 160-70.4 160-160v-704c0-54.4-41.6-96-96-96zM224 800c-19.2 0-32-12.8-32-32v-768c0-19.2 12.8-32 32-32h576c19.2 0 32 12.8 32 32V704c0 54.4-41.6 96-96 96H224z"  horiz-adv-x="1024" />

    
    <glyph glyph-name="fanhui" unicode="&#59170;" d="M960 416H140.8l240 240c12.8 12.8 12.8 32 0 44.8s-32 12.8-44.8 0l-294.4-294.4c-3.2-3.2-6.4-6.4-6.4-9.6-3.2-6.4-3.2-16 0-25.6 3.2-3.2 3.2-6.4 6.4-9.6l294.4-294.4c12.8-12.8 32-12.8 44.8 0 12.8 12.8 12.8 32 0 44.8L140.8 352H960c19.2 0 32 12.8 32 32s-12.8 32-32 32z"  horiz-adv-x="1024" />

    
    <glyph glyph-name="fenxiang" unicode="&#59171;" d="M928 345.6c-19.2 0-32-12.8-32-32V32c0-19.2-12.8-32-32-32H160c-19.2 0-32 12.8-32 32V736c0 19.2 12.8 32 32 32h246.4c19.2 0 32 12.8 32 32s-12.8 32-32 32H160C105.6 832 64 790.4 64 736v-704c0-54.4 41.6-96 96-96h704c54.4 0 96 41.6 96 96v281.6c0 16-12.8 32-32 32zM928 832h-288c-19.2 0-32-12.8-32-32s12.8-32 32-32h195.2C672 697.6 352 508.8 352 188.8c0-19.2 12.8-32 32-32s32 12.8 32 32c0 313.6 364.8 492.8 480 534.4V544c0-19.2 12.8-32 32-32s32 12.8 32 32V800c0 19.2-12.8 32-32 32z"  horiz-adv-x="1024" />

    
    <glyph glyph-name="caidan" unicode="&#59172;" d="M352 793.6H150.4C99.2 793.6 57.6 755.2 57.6 704v-204.8c0-51.2 41.6-89.6 89.6-89.6H352c51.2 0 89.6 41.6 89.6 89.6V704c0 51.2-38.4 89.6-89.6 89.6z m25.6-291.2c0-16-12.8-25.6-25.6-25.6H150.4c-16 0-25.6 12.8-25.6 25.6V704c0 16 12.8 25.6 25.6 25.6H352c16 0 25.6-12.8 25.6-25.6v-201.6zM937.6 665.6l-144 144c-35.2 35.2-92.8 35.2-128 0l-144-144c-16-16-25.6-38.4-25.6-64s9.6-48 25.6-64l144-144c16-16 38.4-25.6 64-25.6s48 9.6 64 25.6l144 144c16 16 25.6 38.4 25.6 64 3.2 25.6-6.4 48-25.6 64z m-44.8-80l-144-144c-9.6-9.6-25.6-9.6-38.4 0l-144 144c-9.6 9.6-9.6 25.6 0 38.4L710.4 768c6.4 6.4 12.8 6.4 19.2 6.4 6.4 0 12.8-3.2 19.2-6.4l144-144c6.4-6.4 6.4-12.8 6.4-19.2 3.2-9.6 0-16-6.4-19.2zM352 313.6H150.4c-51.2 0-89.6-41.6-89.6-89.6v-204.8c0-51.2 41.6-89.6 89.6-89.6H352c51.2 0 89.6 41.6 89.6 89.6V224c0 51.2-38.4 89.6-89.6 89.6z m25.6-291.2c0-16-12.8-25.6-25.6-25.6H150.4c-16 0-25.6 12.8-25.6 25.6V224c0 16 12.8 25.6 25.6 25.6H352c16 0 25.6-12.8 25.6-25.6v-201.6zM832 313.6h-204.8c-51.2 0-89.6-41.6-89.6-89.6v-204.8c0-51.2 41.6-89.6 89.6-89.6H832c51.2 0 89.6 41.6 89.6 89.6V224c0 51.2-38.4 89.6-89.6 89.6z m25.6-291.2c0-16-12.8-25.6-25.6-25.6h-204.8c-16 0-25.6 12.8-25.6 25.6V224c0 16 12.8 25.6 25.6 25.6H832c16 0 25.6-12.8 25.6-25.6v-201.6z"  horiz-adv-x="1024" />

    
    <glyph glyph-name="guanbi" unicode="&#59173;" d="M512 864C246.4 864 32 649.6 32 384s214.4-480 480-480 480 214.4 480 480S777.6 864 512 864z m0-896C281.6-32 96 153.6 96 384S281.6 800 512 800s416-185.6 416-416-185.6-416-416-416zM761.6 633.6c-12.8 12.8-32 12.8-44.8 0L512 428.8 307.2 633.6c-12.8 12.8-32 12.8-44.8 0-12.8-12.8-12.8-32 0-44.8l204.8-204.8-204.8-204.8c-12.8-12.8-12.8-32 0-44.8 12.8-12.8 32-12.8 44.8 0l204.8 204.8 204.8-204.8c12.8-12.8 32-12.8 44.8 0 12.8 12.8 12.8 32 0 44.8L556.8 384l204.8 204.8c12.8 12.8 12.8 32 0 44.8z"  horiz-adv-x="1024" />

    
    <glyph glyph-name="guanbi1" unicode="&#59174;" d="M556.8 384L918.4 745.6c12.8 12.8 12.8 32 0 44.8-12.8 12.8-32 12.8-44.8 0L512 428.8 150.4 790.4c-12.8 12.8-32 12.8-44.8 0-12.8-12.8-12.8-32 0-44.8L467.2 384 105.6 22.4c-12.8-12.8-12.8-32 0-44.8 12.8-12.8 32-12.8 44.8 0L512 339.2l361.6-361.6c12.8-12.8 32-12.8 44.8 0 12.8 12.8 12.8 32 0 44.8L556.8 384z"  horiz-adv-x="1024" />

    
    <glyph glyph-name="jiahao" unicode="&#59175;" d="M928 416H544V800c0 19.2-12.8 32-32 32s-32-12.8-32-32v-384H96c-19.2 0-32-12.8-32-32s12.8-32 32-32h384v-384c0-19.2 12.8-32 32-32s32 12.8 32 32V352h384c19.2 0 32 12.8 32 32s-12.8 32-32 32z"  horiz-adv-x="1024" />

    
    <glyph glyph-name="jifen" unicode="&#59176;" d="M707.2 512c-19.2 3.2-35.2-9.6-35.2-25.6-12.8-76.8-80-134.4-156.8-134.4-80 0-147.2 57.6-156.8 134.4-3.2 16-19.2 28.8-35.2 25.6-16-3.2-28.8-19.2-25.6-35.2 16-108.8 108.8-188.8 220.8-188.8 112 0 204.8 80 220.8 188.8-3.2 16-16 32-32 35.2zM947.2 67.2l-144 249.6c38.4 54.4 60.8 121.6 60.8 195.2 0 195.2-156.8 352-352 352S160 704 160 508.8c0-73.6 22.4-140.8 60.8-195.2L76.8 64c-6.4-9.6-6.4-25.6 0-35.2 6.4-9.6 19.2-16 32-12.8l118.4 22.4 38.4-112c3.2-12.8 16-19.2 28.8-22.4h3.2c12.8 0 22.4 6.4 28.8 16l137.6 240c16-3.2 32-3.2 48-3.2s32 0 48 3.2l137.6-240c6.4-9.6 16-16 28.8-16h3.2c12.8 0 22.4 9.6 28.8 22.4l38.4 112 118.4-22.4c12.8-3.2 25.6 3.2 32 12.8 6.4 12.8 6.4 25.6 0 38.4zM304 12.8l-25.6 73.6c-6.4 16-19.2 22.4-35.2 22.4l-76.8-12.8 96 169.6c38.4-38.4 83.2-67.2 134.4-83.2l-92.8-169.6zM224 508.8c0 160 128 288 288 288s288-128 288-288-128-288-288-288-288 131.2-288 288z m556.8-400c-16 3.2-32-6.4-35.2-22.4l-25.6-73.6-96 163.2c51.2 19.2 99.2 48 134.4 83.2l96-169.6-73.6 19.2z"  horiz-adv-x="1024" />

    
    <glyph glyph-name="duoyonghu" unicode="&#59178;" d="M729.6 336c-80 0-147.2 64-147.2 147.2s64 147.2 147.2 147.2 147.2-64 147.2-147.2-67.2-147.2-147.2-147.2z m0 230.4c-44.8 0-83.2-35.2-83.2-83.2s35.2-83.2 83.2-83.2 83.2 35.2 83.2 83.2-38.4 83.2-83.2 83.2zM947.2 6.4h-134.4c-19.2 0-32 12.8-32 32s12.8 32 32 32h131.2c-3.2 70.4-73.6 172.8-176 172.8h-12.8c-19.2 0-32 12.8-32 32s12.8 32 32 32h12.8c147.2 0 240-144 240-240 0-35.2-28.8-60.8-60.8-60.8zM377.6 396.8C275.2 396.8 192 480 192 579.2s83.2 182.4 182.4 182.4 182.4-83.2 182.4-182.4-80-182.4-179.2-182.4z m0 300.8C310.4 697.6 256 646.4 256 579.2s54.4-118.4 118.4-118.4 118.4 54.4 118.4 118.4-51.2 118.4-115.2 118.4zM665.6 6.4H86.4c-38.4 0-70.4 32-70.4 70.4 0 124.8 121.6 307.2 307.2 307.2h99.2c188.8 0 307.2-182.4 307.2-307.2 6.4-38.4-25.6-70.4-64-70.4zM326.4 320c-147.2 0-243.2-147.2-243.2-243.2 0-3.2 3.2-6.4 6.4-6.4h579.2c3.2 0 6.4 3.2 6.4 6.4 0 96-96 243.2-243.2 243.2h-105.6z"  horiz-adv-x="1024" />

    
    <glyph glyph-name="jinggao" unicode="&#59179;" d="M512 864C246.4 864 32 649.6 32 384s214.4-480 480-480 480 214.4 480 480S777.6 864 512 864z m0-896C281.6-32 96 153.6 96 384S281.6 800 512 800s416-185.6 416-416-185.6-416-416-416zM512 192m-38.4 0a38.4 38.4 0 1 1 76.8 0 38.4 38.4 0 1 1-76.8 0ZM512 640c-28.8 0-48-19.2-48-44.8l16-320c0-9.6 16-19.2 32-19.2 19.2 0 32 9.6 32 19.2l16 320c0 25.6-19.2 44.8-48 44.8z"  horiz-adv-x="1024" />

    
    <glyph glyph-name="kejian" unicode="&#59180;" d="M512 64c-204.8 0-387.2 121.6-470.4 307.2-3.2 9.6-3.2 16 0 25.6C124.8 582.4 307.2 704 512 704s387.2-121.6 470.4-307.2c3.2-9.6 3.2-16 0-25.6C899.2 185.6 716.8 64 512 64zM108.8 384c73.6-156.8 230.4-256 403.2-256s329.6 99.2 403.2 256c-73.6 156.8-230.4 256-403.2 256S182.4 540.8 108.8 384zM512 224c-89.6 0-160 70.4-160 160s70.4 160 160 160 160-70.4 160-160-70.4-160-160-160z m0 256c-54.4 0-96-41.6-96-96s41.6-96 96-96 96 41.6 96 96-41.6 96-96 96z"  horiz-adv-x="1024" />

    
    <glyph glyph-name="kefu" unicode="&#59181;" d="M864 480v32c0 195.2-156.8 352-352 352S160 707.2 160 512v-32c-54.4 0-96-41.6-96-96v-128c0-54.4 41.6-96 96-96h3.2c48-108.8 144-185.6 259.2-214.4 12.8-25.6 48-41.6 89.6-41.6 54.4 0 96 25.6 96 64s-41.6 64-96 64c-32 0-57.6-9.6-76.8-22.4-83.2 19.2-156.8 73.6-201.6 150.4 48 6.4 86.4 44.8 86.4 96v128c0 54.4-41.6 96-96 96v32c0 160 128 288 288 288s288-128 288-288v-32c-54.4 0-96-41.6-96-96v-128c0-54.4 41.6-96 96-96h64c54.4 0 96 41.6 96 96v128c0 54.4-41.6 96-96 96zM256 384v-128c0-19.2-12.8-32-32-32H185.6 160c-19.2 0-32 12.8-32 32v128c0 19.2 12.8 32 32 32h64c19.2 0 32-12.8 32-32z m640-128c0-19.2-12.8-32-32-32h-64c-19.2 0-32 12.8-32 32v128c0 19.2 12.8 32 32 32h64c19.2 0 32-12.8 32-32v-128z"  horiz-adv-x="1024" />

    
    <glyph glyph-name="guanbiquanxian" unicode="&#59182;" d="M768 512H352V640c0 89.6 70.4 160 160 160s160-70.4 160-160c0-19.2 12.8-32 32-32s32 12.8 32 32c0 124.8-99.2 224-224 224S288 764.8 288 640v-128H256c-54.4 0-96-41.6-96-96v-416c0-54.4 41.6-96 96-96h512c54.4 0 96 41.6 96 96V416c0 54.4-41.6 96-96 96z m32-512c0-19.2-12.8-32-32-32H256c-19.2 0-32 12.8-32 32V416c0 19.2 12.8 32 32 32h512c19.2 0 32-12.8 32-32v-416zM512 320c-35.2 0-64-28.8-64-64 0-22.4 12.8-44.8 32-54.4V128c0-19.2 12.8-32 32-32s32 12.8 32 32v73.6c19.2 9.6 32 32 32 54.4 0 35.2-28.8 64-64 64z"  horiz-adv-x="1024" />

    
    <glyph glyph-name="liulanjilu" unicode="&#59183;" d="M688 336c-124.8 0-224-99.2-224-224s99.2-224 224-224 224 99.2 224 224-99.2 224-224 224z m0-384c-89.6 0-160 70.4-160 160s70.4 160 160 160 160-70.4 160-160-70.4-160-160-160zM467.2 592c16 0 28.8 12.8 28.8 32s-12.8 32-28.8 32H284.8c-16 0-28.8-12.8-28.8-32s12.8-32 28.8-32h182.4zM288 400h368c19.2 0 32 12.8 32 32s-12.8 32-32 32H288c-19.2 0-32-12.8-32-32s12.8-32 32-32zM432-16h-224c-19.2 0-32 12.8-32 32v768c0 19.2 12.8 32 32 32h512c54.4 0 96-41.6 96-96v-345.6c0-19.2 12.8-32 32-32s32 12.8 32 32V720c0 89.6-70.4 160-160 160h-512c-54.4 0-96-41.6-96-96v-768c0-54.4 41.6-96 96-96h224c19.2 0 32 12.8 32 32s-16 32-32 32zM768 128h-64v32c0 19.2-12.8 32-32 32s-32-12.8-32-32v-64c0-19.2 12.8-32 32-32h96c19.2 0 32 12.8 32 32s-12.8 32-32 32z"  horiz-adv-x="1024" />

    
    <glyph glyph-name="qiye" unicode="&#59184;" d="M416 281.6H256c-19.2 0-32-12.8-32-32s12.8-32 32-32h160c19.2 0 32 12.8 32 32s-12.8 32-32 32zM416 537.6H256c-19.2 0-32-12.8-32-32s12.8-32 32-32h160c19.2 0 32 12.8 32 32s-12.8 32-32 32zM992-6.4h-64V435.2c0 38.4-28.8 73.6-67.2 83.2L576 592V761.6c0 22.4-9.6 44.8-28.8 57.6-22.4 16-54.4 22.4-86.4 12.8L166.4 758.4C124.8 748.8 96 710.4 96 668.8v-678.4H32c-19.2 0-32-12.8-32-32s12.8-32 32-32h960c19.2 0 32 12.8 32 32s-12.8 35.2-32 35.2z m-480 0H160V668.8c0 12.8 9.6 25.6 22.4 28.8l294.4 76.8c16 3.2 25.6 0 32-3.2 3.2-3.2 3.2-6.4 3.2-9.6v-768z m352 0h-288V528l268.8-70.4c9.6-3.2 19.2-16 19.2-22.4v-441.6zM768 281.6h-96c-19.2 0-32-12.8-32-32s12.8-32 32-32h96c19.2 0 32 12.8 32 32s-12.8 32-32 32z"  horiz-adv-x="1024" />

    
    <glyph glyph-name="rili1" unicode="&#59185;" d="M320 288h384c19.2 0 32 12.8 32 32s-12.8 32-32 32H320c-19.2 0-32-12.8-32-32s12.8-32 32-32zM320 128h224c19.2 0 32 12.8 32 32s-12.8 32-32 32h-224c-19.2 0-32-12.8-32-32s12.8-32 32-32zM896 736h-128V768c0 19.2-12.8 32-32 32s-32-12.8-32-32v-32H320V768c0 19.2-12.8 32-32 32s-32-12.8-32-32v-32H128C73.6 736 32 694.4 32 640v-576c0-54.4 41.6-96 96-96h768c54.4 0 96 41.6 96 96V640c0 54.4-41.6 96-96 96z m32-672c0-19.2-12.8-32-32-32H128c-19.2 0-32 12.8-32 32V480h832v-416z m0 480H96V640c0 19.2 12.8 32 32 32h128v-32c0-19.2 12.8-32 32-32s32 12.8 32 32V672h384v-32c0-19.2 12.8-32 32-32s32 12.8 32 32V672h128c19.2 0 32-12.8 32-32v-96z"  horiz-adv-x="1024" />

    
    <glyph glyph-name="gonggao" unicode="&#59188;" d="M537.6-86.4c-19.2 0-38.4 9.6-54.4 25.6l-214.4 230.4H147.2c-44.8 0-83.2 38.4-83.2 83.2v262.4c0 44.8 38.4 83.2 83.2 83.2h121.6l214.4 230.4c19.2 22.4 48 32 76.8 22.4 28.8-9.6 48-35.2 48-64v-803.2c0-28.8-19.2-54.4-48-64-6.4-6.4-12.8-6.4-22.4-6.4zM147.2 534.4c-9.6 0-19.2-9.6-19.2-19.2v-262.4c0-9.6 9.6-19.2 19.2-19.2h134.4c9.6 0 16-3.2 22.4-9.6l227.2-240s0-3.2 3.2-3.2c0 0 3.2-3.2 6.4-3.2s3.2 3.2 3.2 3.2V787.2s0 3.2-3.2 3.2-3.2 0-6.4-3.2c0 0 0-3.2-3.2-3.2l-224-240c-6.4-6.4-16-9.6-22.4-9.6H147.2zM672-9.6c-12.8 0-25.6 9.6-28.8 22.4-6.4 16 3.2 35.2 19.2 41.6C803.2 102.4 896 233.6 896 384s-96 284.8-236.8 332.8c-16 6.4-25.6 25.6-19.2 41.6s25.6 25.6 41.6 19.2C848 720 960 560 960 384s-112-332.8-278.4-393.6H672zM672 217.6c-12.8 0-25.6 9.6-28.8 22.4-6.4 16 3.2 35.2 19.2 41.6 44.8 16 73.6 57.6 73.6 105.6s-28.8 89.6-73.6 105.6c-16 6.4-25.6 25.6-19.2 41.6 6.4 16 25.6 25.6 41.6 19.2 70.4-25.6 118.4-92.8 118.4-166.4s-48-140.8-118.4-166.4c-6.4-3.2-9.6-3.2-12.8-3.2z"  horiz-adv-x="1024" />

    
    <glyph glyph-name="shanchu" unicode="&#59189;" d="M928 704h-224V736c0 54.4-41.6 96-96 96h-192c-54.4 0-96-41.6-96-96v-32H96c-19.2 0-32-12.8-32-32s12.8-32 32-32h832c19.2 0 32 12.8 32 32s-12.8 32-32 32z m-288 0h-256V736c0 19.2 12.8 32 32 32h192c19.2 0 32-12.8 32-32v-32zM803.2 608c-19.2 3.2-32-9.6-35.2-28.8l-57.6-550.4v-3.2c0-12.8-12.8-25.6-25.6-25.6H339.2c-12.8 0-25.6 12.8-25.6 25.6v3.2L256 579.2c-3.2 19.2-16 28.8-35.2 28.8-19.2-3.2-32-19.2-28.8-35.2l57.6-547.2c0-48 41.6-89.6 89.6-89.6h345.6c48 0 89.6 38.4 89.6 89.6L832 572.8c3.2 16-9.6 32-28.8 35.2zM416 64c19.2 0 32 9.6 35.2 28.8L448 512c0 16-12.8 32-28.8 32s-32-9.6-35.2-28.8V96c0-16 12.8-32 32-32zM640 96V518.4c0 16-16 28.8-35.2 28.8-19.2 0-32-16-28.8-32v-422.4c0-16 16-28.8 35.2-28.8 16 0 28.8 16 28.8 32z"  horiz-adv-x="1024" />

    
    <glyph glyph-name="shanchuyonghu" unicode="&#59190;" d="M496 400c124.8 0 224 99.2 224 224s-99.2 224-224 224-224-99.2-224-224 99.2-224 224-224z m0 384c89.6 0 160-70.4 160-160s-70.4-160-160-160-160 70.4-160 160 70.4 160 160 160zM864-16H128c-9.6 0-16 6.4-16 16 0 128 128 320 320 320h128c48 0 96-12.8 140.8-38.4 16-9.6 35.2-3.2 44.8 12.8 9.6 16 3.2 35.2-12.8 44.8-54.4 28.8-112 44.8-172.8 44.8h-128c-233.6 0-384-227.2-384-384 0-44.8 35.2-80 80-80h736c19.2 0 32 12.8 32 32s-12.8 32-32 32zM944 160h-320c-19.2 0-32-12.8-32-32s12.8-32 32-32h320c19.2 0 32 12.8 32 32s-12.8 32-32 32z"  horiz-adv-x="1024" />

    
    <glyph glyph-name="jianhao" unicode="&#59191;" d="M928 352H96c-19.2 0-32 12.8-32 32s12.8 32 32 32h832c19.2 0 32-12.8 32-32s-12.8-32-32-32z"  horiz-adv-x="1024" />

    
    <glyph glyph-name="shangchuan" unicode="&#59192;" d="M960 320c-19.2 0-32-12.8-32-32v-256c0-19.2-12.8-32-32-32H128c-19.2 0-32 12.8-32 32v256c0 19.2-12.8 32-32 32s-32-12.8-32-32v-256c0-54.4 41.6-96 96-96h768c54.4 0 96 41.6 96 96v256c0 19.2-12.8 32-32 32zM262.4 505.6L480 723.2V128c0-19.2 12.8-32 32-32s32 12.8 32 32V723.2l217.6-217.6c12.8-12.8 32-12.8 44.8 0 12.8 12.8 12.8 32 0 44.8l-272 272c-3.2 3.2-6.4 6.4-9.6 6.4-6.4 3.2-16 3.2-25.6 0-3.2-3.2-6.4-3.2-9.6-6.4l-272-272c-12.8-12.8-12.8-32 0-44.8s32-12.8 44.8 0z"  horiz-adv-x="1024" />

    
    <glyph glyph-name="shangchuan1" unicode="&#59193;" d="M809.6 630.4C761.6 752 643.2 832 512 832S262.4 752 214.4 630.4C105.6 598.4 32 499.2 32 384v-32c0-124.8 99.2-224 224-224 19.2 0 32 12.8 32 32s-12.8 32-32 32c-89.6 0-160 70.4-160 160v32c0 89.6 60.8 166.4 150.4 185.6 9.6 3.2 19.2 12.8 22.4 22.4C304 697.6 400 768 512 768s208-70.4 243.2-176c3.2-9.6 12.8-19.2 22.4-22.4 89.6-19.2 150.4-96 150.4-185.6v-32c0-89.6-70.4-160-160-160-19.2 0-32-12.8-32-32s12.8-32 32-32c124.8 0 224 99.2 224 224v32c0 115.2-73.6 214.4-182.4 246.4zM534.4 342.4c-3.2 3.2-6.4 6.4-9.6 6.4-6.4 3.2-16 3.2-25.6 0-3.2-3.2-6.4-3.2-9.6-6.4l-134.4-134.4c-12.8-12.8-12.8-32 0-44.8 12.8-12.8 32-12.8 44.8 0l80 80V-32c0-19.2 12.8-32 32-32s32 12.8 32 32v275.2l80-80c12.8-12.8 32-12.8 44.8 0 12.8 12.8 12.8 32 0 44.8l-134.4 134.4z"  horiz-adv-x="1024" />

    
    <glyph glyph-name="saoyisao" unicode="&#59194;" d="M867.2-64h-182.4c-19.2 0-32 12.8-32 32s12.8 32 32 32h182.4c16 0 28.8 12.8 28.8 28.8v179.2c0 19.2 12.8 32 32 32s32-12.8 32-32v-179.2c0-51.2-41.6-92.8-92.8-92.8z m-534.4 0H156.8C105.6-64 64-22.4 64 28.8v179.2c0 19.2 12.8 32 32 32s32-12.8 32-32v-179.2c0-16 12.8-28.8 28.8-28.8h176c19.2 0 32-12.8 32-32s-16-32-32-32zM928 352H96c-19.2 0-32 12.8-32 32s12.8 32 32 32h832c19.2 0 32-12.8 32-32s-12.8-32-32-32z m0 179.2c-19.2 0-32 12.8-32 32V739.2c0 16-12.8 28.8-28.8 28.8h-179.2c-19.2 0-32 12.8-32 32s12.8 32 32 32h179.2C918.4 832 960 790.4 960 739.2v-176c0-19.2-12.8-32-32-32z m-832 0c-19.2 0-32 12.8-32 32V739.2C64 790.4 105.6 832 156.8 832h176c19.2 0 32-12.8 32-32s-12.8-32-32-32H156.8c-16 0-28.8-12.8-28.8-28.8v-176c0-19.2-12.8-32-32-32z"  horiz-adv-x="1024" />

    
    <glyph glyph-name="shangjiantou" unicode="&#59195;" d="M489.6 643.2L83.2 233.6c-12.8-12.8-12.8-32 0-44.8 12.8-12.8 32-12.8 44.8 0l384 384 384-384c12.8-12.8 32-12.8 44.8 0 12.8 12.8 12.8 32 0 44.8L534.4 643.2c-12.8 12.8-32 12.8-44.8 0z"  horiz-adv-x="1024" />

    
    <glyph glyph-name="shipin" unicode="&#59196;" d="M950.4 636.8c-22.4 9.6-48 3.2-64-12.8l-118.4-96V576c0 54.4-41.6 96-96 96H128c-54.4 0-96-41.6-96-96v-384c0-54.4 41.6-96 96-96h544c54.4 0 96 41.6 96 96v51.2l118.4-96c19.2-16 41.6-22.4 64-12.8 25.6 9.6 41.6 35.2 41.6 67.2V569.6c0 28.8-16 54.4-41.6 67.2zM704 192c0-19.2-12.8-32-32-32H128c-19.2 0-32 12.8-32 32V576c0 19.2 12.8 32 32 32h544c19.2 0 32-12.8 32-32v-384z m224 6.4v-3.2l-160 131.2v118.4l160 131.2V198.4z"  horiz-adv-x="1024" />

    
    <glyph glyph-name="shenfenzheng" unicode="&#59197;" d="M416 396.8c19.2 19.2 35.2 44.8 35.2 76.8 0 57.6-44.8 102.4-102.4 102.4-57.6 0-102.4-44.8-102.4-102.4 0-28.8 12.8-57.6 35.2-76.8-76.8-22.4-121.6-99.2-121.6-153.6 0-28.8 22.4-51.2 51.2-51.2h272c28.8 0 51.2 22.4 51.2 51.2-3.2 54.4-48 131.2-118.4 153.6zM345.6 512c22.4 0 38.4-16 38.4-38.4s-16-38.4-38.4-38.4-38.4 16-38.4 38.4 16 38.4 38.4 38.4z m-118.4-256c6.4 35.2 44.8 83.2 96 83.2h48c54.4 0 89.6-48 96-83.2H227.2zM896 768H128C73.6 768 32 726.4 32 672v-576c0-54.4 41.6-96 96-96h768c54.4 0 96 41.6 96 96V672c0 54.4-41.6 96-96 96z m32-672c0-19.2-12.8-32-32-32H128c-19.2 0-32 12.8-32 32V672c0 19.2 12.8 32 32 32h768c19.2 0 32-12.8 32-32v-576zM608 448h96c19.2 0 32 12.8 32 32s-12.8 32-32 32h-96c-19.2 0-32-12.8-32-32s12.8-32 32-32zM832 352h-224c-19.2 0-32-12.8-32-32s12.8-32 32-32h224c19.2 0 32 12.8 32 32s-12.8 32-32 32z"  horiz-adv-x="1024" />

    
    <glyph glyph-name="shijian" unicode="&#59198;" d="M512 864C246.4 864 32 649.6 32 384s214.4-480 480-480 480 214.4 480 480S777.6 864 512 864z m0-896C281.6-32 96 153.6 96 384S281.6 800 512 800s416-185.6 416-416-185.6-416-416-416zM544 396.8V640c0 19.2-12.8 32-32 32s-32-12.8-32-32v-256c0-3.2 0-9.6 3.2-12.8 3.2-3.2 3.2-6.4 6.4-9.6l204.8-204.8c6.4-6.4 16-9.6 22.4-9.6s16 3.2 22.4 9.6 9.6 16 9.6 22.4-3.2 16-9.6 22.4L544 396.8z"  horiz-adv-x="1024" />

    
    <glyph glyph-name="shoucang" unicode="&#59199;" d="M803.2-96c-6.4 0-9.6 0-16 3.2L512 54.4l-275.2-144c-12.8-9.6-25.6-6.4-35.2 0-9.6 6.4-16 19.2-12.8 32l51.2 307.2-224 217.6c-9.6 9.6-12.8 22.4-9.6 32 3.2 12.8 12.8 19.2 25.6 22.4l310.4 44.8L480 844.8c9.6 22.4 48 22.4 57.6 0l137.6-278.4 310.4-44.8c12.8-3.2 22.4-9.6 25.6-22.4 3.2-12.8 0-25.6-9.6-32l-224-217.6 51.2-307.2c3.2-12.8-3.2-25.6-12.8-32 0-3.2-6.4-6.4-12.8-6.4zM512 121.6c6.4 0 9.6 0 16-3.2l233.6-121.6-44.8 259.2c-3.2 9.6 3.2 22.4 9.6 28.8l188.8 185.6-262.4 38.4c-9.6 0-19.2 9.6-25.6 16L512 758.4l-118.4-236.8c-3.2-9.6-12.8-16-25.6-16l-262.4-38.4 188.8-185.6c6.4-6.4 9.6-19.2 9.6-28.8l-44.8-259.2 233.6 121.6c9.6 3.2 12.8 6.4 19.2 6.4z"  horiz-adv-x="1024" />

    
    <glyph glyph-name="shezhi" unicode="&#59200;" d="M512-96c-35.2 0-73.6 3.2-112 12.8-12.8 3.2-22.4 12.8-25.6 28.8l-9.6 76.8c-3.2 0-6.4 3.2-9.6 3.2l-60.8-48c-6.4-9.6-22.4-9.6-35.2-3.2-64 38.4-118.4 92.8-156.8 156.8-6.4 12.8-6.4 28.8 3.2 38.4l48 60.8c0 3.2-3.2 6.4-3.2 9.6l-76.8 9.6c-12.8 0-25.6 12.8-28.8 25.6-9.6 35.2-12.8 73.6-12.8 108.8s3.2 73.6 12.8 112c3.2 12.8 12.8 22.4 28.8 25.6l76.8 9.6c0 3.2 3.2 6.4 3.2 9.6L105.6 598.4C96 608 96 624 102.4 636.8c38.4 64 92.8 118.4 156.8 156.8 12.8 6.4 28.8 6.4 38.4-3.2l60.8-48c3.2 0 6.4 3.2 9.6 3.2l9.6 76.8c3.2 12.8 12.8 25.6 25.6 28.8 73.6 19.2 147.2 19.2 220.8 0 12.8-3.2 22.4-12.8 25.6-28.8l9.6-76.8c3.2 0 6.4-3.2 9.6-3.2l60.8 48c6.4 9.6 22.4 9.6 35.2 3.2 64-38.4 118.4-92.8 156.8-156.8 6.4-12.8 6.4-28.8-3.2-38.4l-48-60.8c0-3.2 3.2-6.4 3.2-9.6l76.8-9.6c12.8 0 25.6-12.8 28.8-25.6 9.6-38.4 12.8-73.6 12.8-112s-3.2-73.6-12.8-112c-3.2-12.8-12.8-22.4-28.8-25.6l-76.8-9.6c0-3.2-3.2-6.4-3.2-9.6l48-60.8c9.6-9.6 9.6-25.6 3.2-35.2-38.4-64-92.8-118.4-156.8-156.8-12.8-3.2-28.8-3.2-38.4 6.4l-60.8 48c-3.2 0-6.4-3.2-9.6-3.2l-9.6-76.8c-3.2-12.8-12.8-25.6-25.6-28.8-35.2-9.6-73.6-12.8-108.8-12.8z m-73.6 70.4c51.2-9.6 99.2-9.6 150.4 0l9.6 73.6c0 12.8 9.6 22.4 22.4 25.6 12.8 3.2 25.6 9.6 38.4 16 9.6 6.4 25.6 3.2 35.2-3.2l57.6-44.8c41.6 28.8 76.8 64 105.6 105.6l-44.8 57.6c-6.4 9.6-9.6 22.4-3.2 35.2 6.4 12.8 12.8 25.6 16 38.4 3.2 12.8 12.8 19.2 25.6 22.4l73.6 9.6c3.2 25.6 6.4 51.2 6.4 73.6s-3.2 48-6.4 73.6l-73.6 9.6c-12.8 0-22.4 9.6-25.6 22.4-3.2 12.8-9.6 25.6-16 38.4-6.4 9.6-3.2 25.6 3.2 35.2l44.8 57.6c-28.8 41.6-64 76.8-105.6 105.6l-57.6-44.8c-16-9.6-28.8-9.6-38.4-6.4-12.8 6.4-25.6 12.8-38.4 16-12.8 3.2-19.2 12.8-22.4 25.6l-9.6 73.6c-51.2 9.6-99.2 9.6-150.4 0l-9.6-73.6c0-12.8-9.6-22.4-22.4-25.6-12.8-3.2-25.6-9.6-38.4-16-6.4-3.2-22.4-3.2-32 6.4L275.2 726.4c-41.6-28.8-76.8-64-105.6-105.6l44.8-57.6c9.6-12.8 9.6-25.6 6.4-35.2-6.4-12.8-12.8-25.6-16-38.4-3.2-12.8-12.8-19.2-25.6-22.4l-73.6-9.6c-6.4-25.6-9.6-48-9.6-73.6s3.2-48 6.4-73.6l73.6-9.6c12.8 0 22.4-9.6 25.6-22.4 3.2-12.8 9.6-25.6 16-38.4 6.4-9.6 6.4-22.4-3.2-35.2l-44.8-57.6c28.8-41.6 64-76.8 105.6-105.6l57.6 44.8c9.6 6.4 22.4 9.6 35.2 3.2 12.8-6.4 25.6-12.8 38.4-16 12.8-3.2 19.2-12.8 22.4-25.6l9.6-73.6zM512 160c-124.8 0-224 99.2-224 224s99.2 224 224 224 224-99.2 224-224-99.2-224-224-224z m0 384c-89.6 0-160-70.4-160-160s70.4-160 160-160 160 70.4 160 160-70.4 160-160 160z"  horiz-adv-x="1024" />

    
    <glyph glyph-name="shouji" unicode="&#59201;" d="M745.6 864H278.4C230.4 864 192 822.4 192 774.4v-780.8C192-54.4 230.4-96 278.4-96h464c48 0 86.4 41.6 86.4 89.6V774.4C832 822.4 793.6 864 745.6 864z m28.8-870.4c0-16-12.8-28.8-28.8-28.8H278.4c-16 0-28.8 12.8-28.8 28.8V774.4c0 16 12.8 28.8 28.8 28.8h48l22.4-32c9.6-16 28.8-25.6 48-25.6h227.2c19.2 0 38.4 9.6 48 25.6l22.4 32h48c16 0 28.8-12.8 28.8-28.8v-780.8zM598.4 54.4h-176c-16 0-28.8-12.8-28.8-28.8s12.8-28.8 28.8-28.8h176c16 0 28.8 12.8 28.8 28.8s-12.8 28.8-28.8 28.8z"  horiz-adv-x="1024" />

    
    <glyph glyph-name="sousuo" unicode="&#59202;" d="M972.8-38.4l-233.6 233.6c64 70.4 102.4 163.2 102.4 268.8C841.6 684.8 662.4 864 441.6 864S41.6 681.6 41.6 460.8s179.2-400 400-400c96 0 182.4 32 249.6 89.6l236.8-236.8c12.8-12.8 32-12.8 44.8 0 12.8 12.8 12.8 35.2 0 48zM105.6 460.8C105.6 646.4 256 796.8 441.6 796.8s336-150.4 336-336-150.4-336-336-336S105.6 278.4 105.6 460.8z"  horiz-adv-x="1024" />

    
    <glyph glyph-name="shuaxin" unicode="&#59203;" d="M800 544c0-16 16-32 32-32h128c16 0 32 16 32 32V672c0 16-16 32-32 32s-32-16-32-32v-48C841.6 771.2 684.8 864 512 864 246.4 864 32 649.6 32 384s214.4-480 480-480c192 0 368 115.2 441.6 294.4 16 35.2 25.6 70.4 32 105.6 3.2 16-9.6 35.2-25.6 38.4-19.2 3.2-35.2-9.6-38.4-25.6-6.4-32-16-64-25.6-92.8-64-153.6-214.4-252.8-384-252.8C281.6-32 96 153.6 96 384S281.6 800 512 800c156.8 0 297.6-86.4 368-224H832c-16 0-32-16-32-32z"  horiz-adv-x="1024" />

    
    <glyph glyph-name="tongxunlu" unicode="&#59204;" d="M576 387.2c70.4 0 128 57.6 128 128s-57.6 128-128 128-128-57.6-128-128 57.6-128 128-128z m0 192c35.2 0 64-28.8 64-64s-28.8-64-64-64-64 28.8-64 64 28.8 64 64 64zM624 364.8h-96c-99.2 0-176-105.6-176-176 0-16 0-64 64-64h320c64 0 64 48 64 64 0 70.4-76.8 176-176 176zM416 188.8c0 38.4 51.2 112 112 112h96c60.8 0 112-73.6 112-112H416zM864 864H224C169.6 864 128 822.4 128 768v-185.6H96c-19.2 0-32-12.8-32-32s12.8-32 32-32h32v-256H96c-19.2 0-32-12.8-32-32s12.8-32 32-32h32V0c0-54.4 41.6-96 96-96h640c54.4 0 96 41.6 96 96V768c0 54.4-41.6 96-96 96z m32-864c0-19.2-12.8-32-32-32H224c-19.2 0-32 12.8-32 32v198.4h32c19.2 0 32 12.8 32 32s-12.8 32-32 32H192v256h32c19.2 0 32 12.8 32 32s-12.8 32-32 32H192V768c0 19.2 12.8 32 32 32h640c19.2 0 32-12.8 32-32v-768z"  horiz-adv-x="1024" />

    
    <glyph glyph-name="shouye" unicode="&#59205;" d="M982.4 473.6l-448 384c-12.8 9.6-28.8 9.6-41.6 0l-448-384c-12.8-12.8-16-32-3.2-44.8 12.8-12.8 32-16 44.8-3.2L512 790.4l425.6-364.8c6.4-6.4 12.8-6.4 22.4-6.4 9.6 0 19.2 3.2 25.6 9.6 9.6 12.8 9.6 32-3.2 44.8zM531.2 697.6c-12.8 9.6-28.8 9.6-41.6 0l-352-288c-6.4-6.4-9.6-16-9.6-25.6v-384c0-54.4 41.6-96 96-96h192c19.2 0 32 12.8 32 32v144c0 25.6 22.4 48 48 48h32c25.6 0 48-22.4 48-48V-64c0-19.2 12.8-32 32-32h192c54.4 0 96 41.6 96 96V384c0 9.6-3.2 19.2-12.8 25.6l-352 288zM832 0c0-19.2-12.8-32-32-32h-160v112c0 60.8-51.2 112-112 112h-32c-60.8 0-112-51.2-112-112V-32H224c-19.2 0-32 12.8-32 32V368l320 262.4 320-262.4V0z"  horiz-adv-x="1024" />

    
    <glyph glyph-name="tongzhi" unicode="&#59206;" d="M512-96c-60.8 0-108.8 41.6-124.8 96H160c-25.6 0-44.8 9.6-57.6 28.8-16 25.6-12.8 57.6 3.2 92.8 3.2 3.2 3.2 6.4 6.4 9.6L192 204.8V480c0 134.4 83.2 252.8 208 300.8C406.4 828.8 454.4 864 512 864s105.6-35.2 112-83.2C748.8 732.8 832 614.4 832 480v-275.2l80-73.6c3.2-3.2 6.4-6.4 6.4-9.6 16-35.2 19.2-67.2 3.2-92.8-12.8-19.2-32-28.8-57.6-28.8h-227.2c-16-54.4-64-96-124.8-96z m-54.4 96c9.6-19.2 32-32 54.4-32s44.8 12.8 54.4 32h-108.8z m409.6 64s3.2 9.6-3.2 25.6l-86.4 80c-6.4 6.4-9.6 12.8-9.6 22.4v288c0 115.2-76.8 214.4-185.6 246.4-16 3.2-25.6 22.4-22.4 38.4V768c0 16-22.4 32-48 32s-48-16-48-32v-3.2c3.2-16-6.4-32-22.4-38.4C332.8 694.4 256 595.2 256 480v-288c0-9.6-3.2-16-9.6-22.4L160 89.6c-6.4-12.8-6.4-22.4-3.2-25.6h710.4z"  horiz-adv-x="1024" />

    
    <glyph glyph-name="weixuanzhong" unicode="&#59207;" d="M512-96C246.4-96 32 118.4 32 384S246.4 864 512 864s480-214.4 480-480-214.4-480-480-480z m0 896C281.6 800 96 614.4 96 384s185.6-416 416-416 416 185.6 416 416S742.4 800 512 800z"  horiz-adv-x="1024" />

    
    <glyph glyph-name="tupian" unicode="&#59208;" d="M896 768H128C73.6 768 32 726.4 32 672v-576c0-54.4 41.6-96 96-96h768c54.4 0 96 41.6 96 96V672c0 54.4-41.6 96-96 96zM96 672c0 19.2 12.8 32 32 32h768c19.2 0 32-12.8 32-32v-457.6l-150.4 150.4c-19.2 19.2-41.6 28.8-67.2 28.8s-51.2-9.6-67.2-25.6L438.4 192l-140.8 112c-35.2 35.2-99.2 35.2-134.4 0L96 236.8V672z m832-576c0-19.2-12.8-32-32-32H128c-19.2 0-32 12.8-32 32v51.2L208 256c12.8 12.8 32 12.8 44.8 0 0 0 3.2 0 3.2-3.2l163.2-131.2c12.8-9.6 28.8-9.6 41.6 0l227.2 195.2 3.2 3.2c12.8 12.8 32 12.8 44.8 0l195.2-195.2v-28.8zM288 416c54.4 0 96 41.6 96 96s-41.6 96-96 96-96-41.6-96-96 41.6-96 96-96z m0 128c19.2 0 32-12.8 32-32s-12.8-32-32-32-32 12.8-32 32 12.8 32 32 32z"  horiz-adv-x="1024" />

    
    <glyph glyph-name="wenjian" unicode="&#59209;" d="M896 704H524.8l-150.4 121.6c-9.6 3.2-16 6.4-22.4 6.4H128C73.6 832 32 790.4 32 736v-704c0-54.4 41.6-96 96-96h768c54.4 0 96 41.6 96 96V608c0 54.4-41.6 96-96 96z m32-672c0-19.2-12.8-32-32-32H128c-19.2 0-32 12.8-32 32V448h832v-416z m0 480H96V736c0 19.2 12.8 32 32 32h211.2l150.4-121.6c9.6-3.2 16-6.4 22.4-6.4h384c19.2 0 32-12.8 32-32v-96z"  horiz-adv-x="1024" />

    
    <glyph glyph-name="weizhi" unicode="&#59210;" d="M790.4 745.6C716.8 819.2 617.6 864 512 864 406.4 867.2 310.4 825.6 233.6 752c-153.6-153.6-153.6-406.4 0-563.2 86.4-89.6 140.8-156.8 176-201.6 44.8-57.6 67.2-86.4 102.4-86.4s57.6 28.8 102.4 83.2c35.2 44.8 89.6 108.8 176 195.2 153.6 156.8 153.6 409.6 0 566.4z m-48-518.4c-89.6-89.6-144-156.8-179.2-201.6-22.4-25.6-41.6-51.2-54.4-57.6-9.6 6.4-32 35.2-51.2 60.8-35.2 44.8-89.6 115.2-179.2 204.8-128 131.2-128 342.4 3.2 470.4 60.8 60.8 144 96 230.4 96h3.2c89.6 0 172.8-35.2 233.6-99.2 124.8-131.2 124.8-342.4-6.4-473.6zM508.8 611.2c-44.8 0-86.4-16-118.4-48s-48-73.6-48-118.4c0-44.8 16-86.4 48-118.4s73.6-48 118.4-48c44.8 0 86.4 16 118.4 48s48 73.6 48 118.4c0 44.8-16 86.4-48 118.4s-73.6 48-118.4 48z m73.6-240c-38.4-38.4-105.6-38.4-147.2 0-19.2 19.2-28.8 44.8-28.8 73.6 0 28.8 9.6 54.4 28.8 73.6 19.2 19.2 44.8 28.8 73.6 28.8s54.4-9.6 73.6-28.8c19.2-19.2 28.8-44.8 28.8-73.6 3.2-28.8-9.6-54.4-28.8-73.6z"  horiz-adv-x="1024" />

    
    <glyph glyph-name="xiai" unicode="&#59211;" d="M512-57.6h-6.4c-6.4 0-12.8 3.2-16 9.6L118.4 323.2C64 377.6 32 451.2 32 531.2s32 153.6 86.4 208c54.4 54.4 128 86.4 208 86.4 67.2 0 134.4-22.4 185.6-67.2 115.2 96 288 86.4 393.6-19.2 115.2-115.2 115.2-300.8 0-416L534.4-48c-6.4-6.4-12.8-9.6-22.4-9.6zM326.4 761.6c-60.8 0-118.4-25.6-163.2-67.2C118.4 649.6 96 592 96 531.2s22.4-118.4 67.2-163.2L512 19.2l348.8 348.8c89.6 89.6 89.6 236.8 0 326.4-89.6 89.6-236.8 89.6-326.4 0-12.8-12.8-35.2-12.8-44.8 0-44.8 41.6-102.4 67.2-163.2 67.2z"  horiz-adv-x="1024" />

    
    <glyph glyph-name="xiajiantou" unicode="&#59212;" d="M534.4 124.8l406.4 406.4c12.8 12.8 12.8 32 0 44.8-12.8 12.8-32 12.8-44.8 0L512 192 128 579.2c-12.8 12.8-32 12.8-44.8 0-12.8-12.8-12.8-32 0-44.8L489.6 128c12.8-16 32-16 44.8-3.2z"  horiz-adv-x="1024" />

    
    <glyph glyph-name="tianjiayonghu" unicode="&#59213;" d="M512 400c124.8 0 224 99.2 224 224s-99.2 224-224 224-224-99.2-224-224 99.2-224 224-224z m0 384c89.6 0 160-70.4 160-160s-70.4-160-160-160-160 70.4-160 160 70.4 160 160 160zM576-16H144c-9.6 0-16 6.4-16 16 0 128 128 320 320 320h128c19.2 0 32 12.8 32 32s-12.8 32-32 32h-128C214.4 384 64 156.8 64 0c0-44.8 35.2-80 80-80H576c19.2 0 32 12.8 32 32s-12.8 32-32 32zM960 192h-160v160c0 19.2-12.8 32-32 32s-32-12.8-32-32v-160h-160c-19.2 0-32-12.8-32-32s12.8-32 32-32h160v-160c0-19.2 12.8-32 32-32s32 12.8 32 32v160h160c19.2 0 32 12.8 32 32s-12.8 32-32 32z"  horiz-adv-x="1024" />

    
    <glyph glyph-name="xiazai" unicode="&#59214;" d="M809.6 630.4C761.6 752 643.2 832 512 832S262.4 752 214.4 630.4C105.6 598.4 32 499.2 32 384v-32c0-124.8 99.2-224 224-224 19.2 0 32 12.8 32 32s-12.8 32-32 32c-89.6 0-160 70.4-160 160v32c0 89.6 60.8 166.4 150.4 185.6 9.6 3.2 19.2 12.8 22.4 22.4C304 697.6 400 768 512 768s208-70.4 243.2-176c3.2-9.6 12.8-19.2 22.4-22.4 89.6-19.2 150.4-96 150.4-185.6v-32c0-89.6-70.4-160-160-160-19.2 0-32-12.8-32-32s12.8-32 32-32c124.8 0 224 99.2 224 224v32c0 115.2-73.6 214.4-182.4 246.4zM624 124.8L544 44.8V320c0 19.2-12.8 32-32 32s-32-12.8-32-32v-275.2l-80 80c-12.8 12.8-32 12.8-44.8 0-12.8-12.8-12.8-32 0-44.8l134.4-134.4c3.2-3.2 6.4-6.4 9.6-6.4 3.2 0 6.4-3.2 12.8-3.2 3.2 0 9.6 0 12.8 3.2 3.2 3.2 6.4 3.2 9.6 6.4l134.4 134.4c12.8 12.8 12.8 32 0 44.8-9.6 12.8-32 12.8-44.8 0z"  horiz-adv-x="1024" />

    
    <glyph glyph-name="xuanzhong" unicode="&#59215;" d="M940.8 678.4c-12.8 12.8-32 12.8-44.8 0L377.6 156.8 128 406.4c-12.8 12.8-32 12.8-44.8 0-12.8-12.8-12.8-32 0-44.8l272-272c12.8-12.8 32-12.8 44.8 0l544 544c9.6 12.8 9.6 32-3.2 44.8z"  horiz-adv-x="1024" />

    
    <glyph glyph-name="xiangji" unicode="&#59216;" d="M896 665.6h-121.6L764.8 704c-9.6 41.6-48 73.6-92.8 73.6H352c-44.8-3.2-83.2-32-92.8-73.6l-9.6-38.4H128c-54.4 0-96-41.6-96-96v-480c0-54.4 41.6-96 96-96h768c54.4 0 96 41.6 96 96v480c0 51.2-41.6 96-96 96z m32-576c0-19.2-12.8-32-32-32H128c-19.2 0-32 12.8-32 32v480c0 19.2 12.8 32 32 32h147.2c16 0 28.8 9.6 32 25.6l16 64c3.2 12.8 16 25.6 32 25.6h320c16 0 28.8-9.6 32-25.6l16-64c3.2-12.8 16-25.6 32-25.6H896c19.2 0 32-12.8 32-32v-480zM512 537.6c-105.6 0-192-86.4-192-192s86.4-192 192-192 192 86.4 192 192-86.4 192-192 192z m0-320c-70.4 0-128 57.6-128 128s57.6 128 128 128 128-57.6 128-128-57.6-128-128-128zM800 528h-32c-19.2 0-32-12.8-32-32s12.8-32 32-32h32c19.2 0 32 12.8 32 32s-12.8 32-32 32z"  horiz-adv-x="1024" />

    
    <glyph glyph-name="xiaoxi" unicode="&#59217;" d="M544 416H288c-19.2 0-32-12.8-32-32s12.8-32 32-32h256c19.2 0 32 12.8 32 32s-12.8 32-32 32zM736 576H288c-19.2 0-32-12.8-32-32s12.8-32 32-32h448c19.2 0 32 12.8 32 32s-12.8 32-32 32zM896 800H128C73.6 800 32 758.4 32 704v-480c0-54.4 41.6-96 96-96h64v-128c0-12.8 6.4-22.4 16-28.8 6.4-3.2 9.6-3.2 16-3.2s12.8 3.2 19.2 6.4l214.4 153.6H896c54.4 0 96 41.6 96 96V704c0 54.4-41.6 96-96 96z m32-576c0-19.2-12.8-32-32-32H448c-6.4 0-12.8-3.2-19.2-6.4L256 60.8V160c0 19.2-12.8 32-32 32H128c-19.2 0-32 12.8-32 32V704c0 19.2 12.8 32 32 32h768c19.2 0 32-12.8 32-32v-480z"  horiz-adv-x="1024" />

    
    <glyph glyph-name="xuanzhong1" unicode="&#59218;" d="M512 864C246.4 864 32 649.6 32 384s214.4-480 480-480 480 214.4 480 480S777.6 864 512 864z m0-896C281.6-32 96 153.6 96 384S281.6 800 512 800s416-185.6 416-416-185.6-416-416-416zM512 608c-124.8 0-224-99.2-224-224s99.2-224 224-224 224 99.2 224 224-99.2 224-224 224z m0-384c-89.6 0-160 70.4-160 160s70.4 160 160 160 160-70.4 160-160-70.4-160-160-160z"  horiz-adv-x="1024" />

    
    <glyph glyph-name="yijianfankui" unicode="&#59219;" d="M960 483.2c0 3.2 0 6.4-3.2 9.6v3.2c0 3.2-3.2 6.4-6.4 9.6-3.2 3.2-3.2 3.2-6.4 3.2L800 588.8V771.2C800 822.4 761.6 864 710.4 864H313.6C262.4 864 224 822.4 224 771.2v-182.4l-144-83.2c-3.2 0-3.2-3.2-6.4-3.2-3.2-3.2-3.2-6.4-6.4-9.6v-3.2c-3.2-3.2-3.2-3.2-3.2-6.4V0c0-54.4 41.6-96 92.8-96h713.6c51.2 0 92.8 41.6 92.8 96L960 483.2c0-3.2 0-3.2 0 0z m-102.4 0l-57.6-22.4v57.6l57.6-35.2zM313.6 800h396.8c16 0 25.6-12.8 25.6-28.8v-342.4l-224-96-224 96V771.2c0 16 9.6 28.8 25.6 28.8zM224 515.2v-57.6l-57.6 25.6 57.6 32zM867.2-32H156.8c-16 0-28.8 12.8-28.8 32V432l371.2-160c3.2-3.2 9.6-3.2 12.8-3.2s9.6 0 12.8 3.2l371.2 160V0c0-19.2-12.8-32-28.8-32zM384 640h256c19.2 0 32 12.8 32 32s-12.8 32-32 32h-256c-19.2 0-32-12.8-32-32s12.8-32 32-32zM384 480h160c19.2 0 32 12.8 32 32s-12.8 32-32 32h-160c-19.2 0-32-12.8-32-32s12.8-32 32-32z"  horiz-adv-x="1024" />

    
    <glyph glyph-name="yinle" unicode="&#59220;" d="M934.4 828.8c-25.6 19.2-64 25.6-102.4 19.2l-473.6-96C316.8 742.4 288 707.2 288 668.8v-486.4c-22.4 16-51.2 25.6-80 25.6C128 208 64 144 64 64s64-144 144-144 144 64 144 144v9.6 448l544 121.6v-364.8c-22.4 16-51.2 25.6-80 25.6-80 0-144-64-144-144s64-144 144-144 144 64 144 144V771.2c0 22.4-9.6 41.6-25.6 57.6zM208-19.2c-44.8 0-80 35.2-80 80s35.2 80 80 80S288 105.6 288 60.8s-35.2-80-80-80z m608 96c-44.8 0-80 35.2-80 80s35.2 80 80 80 80-35.2 80-80-35.2-80-80-80zM896 707.2h-6.4L352 585.6V665.6c0 6.4 9.6 19.2 19.2 19.2l473.6 96c6.4 0 12.8 3.2 19.2 3.2 12.8 0 25.6-3.2 28.8-6.4 3.2-3.2 3.2-6.4 3.2-6.4v-64z"  horiz-adv-x="1024" />

    
    <glyph glyph-name="xiazai1" unicode="&#59221;" d="M489.6 105.6c3.2-3.2 6.4-6.4 9.6-6.4 3.2 0 6.4-3.2 12.8-3.2 3.2 0 9.6 0 12.8 3.2 3.2 3.2 6.4 3.2 9.6 6.4l272 272c12.8 12.8 12.8 32 0 44.8-12.8 12.8-32 12.8-44.8 0L544 204.8V800c0 19.2-12.8 32-32 32s-32-12.8-32-32v-595.2l-217.6 217.6c-12.8 12.8-32 12.8-44.8 0-12.8-12.8-12.8-32 0-44.8l272-272zM960 320c-19.2 0-32-12.8-32-32v-256c0-19.2-12.8-32-32-32H128c-19.2 0-32 12.8-32 32v256c0 19.2-12.8 32-32 32s-32-12.8-32-32v-256c0-54.4 41.6-96 96-96h768c54.4 0 96 41.6 96 96v256c0 19.2-12.8 32-32 32z"  horiz-adv-x="1024" />

    
    <glyph glyph-name="youjian" unicode="&#59222;" d="M896 768H128C73.6 768 32 726.4 32 672v-576c0-54.4 41.6-96 96-96h768c54.4 0 96 41.6 96 96V672c0 54.4-41.6 96-96 96z m-16-64l-339.2-249.6-3.2-3.2c-12.8-12.8-32-12.8-44.8 0l-3.2 3.2L144 704h736zM928 96c0-19.2-12.8-32-32-32H128c-19.2 0-32 12.8-32 32V659.2l348.8-256c38.4-35.2 96-35.2 131.2 0l348.8 256V96z"  horiz-adv-x="1024" />

    
    <glyph glyph-name="xuanzhong2" unicode="&#59223;" d="M512 864C246.4 864 32 649.6 32 384s214.4-480 480-480 480 214.4 480 480S777.6 864 512 864z m0-896C281.6-32 96 153.6 96 384S281.6 800 512 800s416-185.6 416-416-185.6-416-416-416zM748.8 566.4l-316.8-316.8-156.8 156.8c-12.8 12.8-32 12.8-44.8 0-12.8-12.8-12.8-32 0-44.8l182.4-182.4c12.8-12.8 32-12.8 44.8 0l339.2 339.2c12.8 12.8 12.8 32 0 44.8-16 16-35.2 16-48 3.2z"  horiz-adv-x="1024" />

    
    <glyph glyph-name="zhengque" unicode="&#59225;" d="M963.2 688c-12.8 12.8-32 12.8-44.8 0L396.8 227.2c-12.8-9.6-28.8-9.6-41.6 0l-249.6 192c-12.8 12.8-32 12.8-44.8 0-12.8-12.8-12.8-32 0-44.8l294.4-294.4c12.8-12.8 32-12.8 44.8 0L963.2 643.2c12.8 12.8 12.8 35.2 0 44.8z"  horiz-adv-x="1024" />

    
    <glyph glyph-name="yinhangqia" unicode="&#59226;" d="M672 192h128c19.2 0 32 12.8 32 32s-12.8 32-32 32h-128c-19.2 0-32-12.8-32-32s12.8-32 32-32zM896 768H128C73.6 768 32 726.4 32 672v-576c0-54.4 41.6-96 96-96h768c54.4 0 96 41.6 96 96V672c0 54.4-41.6 96-96 96z m32-672c0-19.2-12.8-32-32-32H128c-19.2 0-32 12.8-32 32V512h832v-416z m0 480H96V672c0 19.2 12.8 32 32 32h768c19.2 0 32-12.8 32-32v-96z"  horiz-adv-x="1024" />

    
    <glyph glyph-name="yonghu" unicode="&#59227;" d="M512 400c-124.8 0-224 99.2-224 224s99.2 224 224 224 224-99.2 224-224-99.2-224-224-224z m0 384c-89.6 0-160-70.4-160-160s70.4-160 160-160 160 70.4 160 160-70.4 160-160 160zM880-80h-736C99.2-80 64-44.8 64 0c0 156.8 150.4 384 384 384h128c233.6 0 384-227.2 384-384 0-44.8-35.2-80-80-80zM448 320C256 320 128 128 128 0c0-9.6 6.4-16 16-16h736c9.6 0 16 6.4 16 16 0 128-128 320-320 320h-128z"  horiz-adv-x="1024" />

    
    <glyph glyph-name="youjiantou" unicode="&#59228;" d="M771.2 406.4L361.6 812.8c-12.8 12.8-32 12.8-44.8 0-12.8-12.8-12.8-32 0-44.8l384-384-384-384c-12.8-12.8-12.8-32 0-44.8 12.8-12.8 32-12.8 44.8 0L768 361.6c16 12.8 16 32 3.2 44.8z"  horiz-adv-x="1024" />

    
    <glyph glyph-name="zuojiantou" unicode="&#59229;" d="M252.8 361.6l406.4-406.4c12.8-12.8 32-12.8 44.8 0 12.8 12.8 12.8 32 0 44.8L320 384 704 768c12.8 12.8 12.8 32 0 44.8-12.8 12.8-32 12.8-44.8 0L252.8 406.4c-12.8-12.8-12.8-32 0-44.8z"  horiz-adv-x="1024" />

    
    <glyph glyph-name="zhuzhuangtu" unicode="&#59230;" d="M208 96c19.2 0 32 12.8 32 32v224c0 19.2-12.8 32-32 32s-32-12.8-32-32v-224c0-19.2 12.8-32 32-32zM400 480v-352c0-19.2 12.8-32 32-32s32 12.8 32 32V480c0 19.2-12.8 32-32 32s-32-12.8-32-32zM624 384v-256c0-19.2 12.8-32 32-32s32 12.8 32 32v256c0 19.2-12.8 32-32 32s-32-12.8-32-32zM880 512c-19.2 0-32-12.8-32-32v-352c0-19.2 12.8-32 32-32s32 12.8 32 32V480c0 19.2-12.8 32-32 32zM944 32h-832V768c0 19.2-12.8 32-32 32s-32-12.8-32-32v-768c0-19.2 12.8-32 32-32h864c19.2 0 32 12.8 32 32s-12.8 32-32 32zM208 480c6.4 0 12.8 3.2 19.2 6.4l208 147.2 204.8-118.4c9.6-6.4 22.4-6.4 32 0l192 108.8-6.4-28.8c-3.2-16 6.4-35.2 25.6-38.4h6.4c16 0 28.8 9.6 32 25.6l22.4 112c3.2 16-6.4 35.2-25.6 38.4l-112 22.4c-16 3.2-35.2-6.4-38.4-25.6-3.2-16 6.4-35.2 25.6-38.4l48-9.6-182.4-105.6L448 700.8c-9.6 6.4-25.6 6.4-35.2-3.2l-224-160c-12.8-9.6-19.2-28.8-6.4-44.8 6.4-9.6 16-12.8 25.6-12.8z"  horiz-adv-x="1024" />

    
    <glyph glyph-name="gerenziliao" unicode="&#59231;" d="M512 400c124.8 0 224 99.2 224 224s-99.2 224-224 224-224-99.2-224-224 99.2-224 224-224z m0 384c89.6 0 160-70.4 160-160s-70.4-160-160-160-160 70.4-160 160 70.4 160 160 160zM576-16H144c-9.6 0-16 6.4-16 16 0 128 128 320 320 320h128c19.2 0 32 12.8 32 32s-12.8 32-32 32h-128C214.4 384 64 156.8 64 0c0-44.8 35.2-80 80-80H576c19.2 0 32 12.8 32 32s-12.8 32-32 32zM928 176h-288c-19.2 0-32-12.8-32-32s12.8-32 32-32h288c19.2 0 32 12.8 32 32s-12.8 32-32 32zM928 32h-288c-19.2 0-32-12.8-32-32s12.8-32 32-32h288c19.2 0 32 12.8 32 32s-12.8 32-32 32zM608 288c0-19.2 12.8-32 32-32h288c19.2 0 32 12.8 32 32s-12.8 32-32 32h-288c-19.2 0-32-12.8-32-32z"  horiz-adv-x="1024" />

    
    <glyph glyph-name="guanyu" unicode="&#59232;" d="M512 864C246.4 864 32 649.6 32 384s214.4-480 480-480 480 214.4 480 480S777.6 864 512 864z m0-896C281.6-32 96 153.6 96 384S281.6 800 512 800s416-185.6 416-416-185.6-416-416-416zM512 480c-25.6 0-48-22.4-48-48v-256c0-25.6 22.4-48 48-48s48 22.4 48 48v256c0 25.6-22.4 48-48 48zM512 592m-48 0a48 48 0 1 1 96 0 48 48 0 1 1-96 0Z"  horiz-adv-x="1024" />

    
    <glyph glyph-name="paihangbang" unicode="&#58884;" d="M315.598 1.78H127.024V384.03h188.574v-382.25z m288.088 0.453H417.385V768.285h186.3v-766.052z m291.503-0.726H707.256V527.032H895.19v-525.525z"  horiz-adv-x="1024" />

    
    <glyph glyph-name="gedan" unicode="&#58883;" d="M796.2 831.8H228c-55.2 0-100-44.8-100-100v-695.3c0-55.2 44.8-100 100-100h568.1c55.2 0 100 44.8 100 100V731.8c0.1 55.2-44.7 100-99.9 100zM265.4 630.7c5.8 5.8 13.8 9.4 22.6 9.4h320c17.7 0 32-14.3 32-32 0-8.9-3.6-16.9-9.4-22.7-5.8-5.8-13.8-9.4-22.6-9.4H288c-17.7 0-32 14.3-32 32 0 8.9 3.6 16.9 9.4 22.7z m0-192c5.8 5.8 13.8 9.4 22.6 9.4h320c17.7 0 32-14.3 32-32 0-8.8-3.6-16.8-9.4-22.6-5.8-5.8-13.8-9.4-22.6-9.4H288c-17.7 0-32 14.3-32 32 0 8.8 3.6 16.8 9.4 22.6z m173.3-237.3c-5.8-5.8-13.8-9.4-22.6-9.4h-128c-17.7 0-32 14.3-32 32 0 8.8 3.6 16.8 9.4 22.6s13.8 9.4 22.6 9.4h128c17.7 0 32-14.3 32-32 0-8.8-3.6-16.8-9.4-22.6zM866 415c-17.2-20.6-47.2-31.8-78.9-26.9-20 3.1-37.3 12-50 24.5l-42.8-276.7c-0.4-2.6-1.3-5.1-2.6-7.3 0.3-4.2 0.2-8.5-0.5-12.8-6.5-42-59.1-68.7-117.6-59.6-58.4 9.1-100.5 50.4-94 92.4 6.5 42 59.1 68.7 117.6 59.6 24.8-3.9 46.7-13.5 63.2-26.6L706.9 482c1.6 10.2 10.4 17.4 20.4 17.2 0.9 0 1.8-0.1 2.7-0.2 3-0.5 5.7-1.6 8.1-3.1 1.1-10.3 3.8-20.3 8-29.5 5.1-14.2 15.2-27 28.7-36.4 11.1-7.8 24.6-13.4 39.4-15.7 21.3-3.3 41.8 0.7 58.1 9.8-1.8-3.4-3.9-6.3-6.3-9.1z"  horiz-adv-x="1024" />

    
    <glyph glyph-name="zhibobofangshexiangjiguankanmianxing" unicode="&#58881;" d="M796.444 380.44399999999996l130.674 57.999a28.444 28.444 0 0 0 39.993-25.999v-317.44a28.444 28.444 0 0 0-39.993-26.026l-130.674 58.026v-84.337a56.889 56.889 0 0 0-56.888-56.89H113.778a56.889 56.889 0 0 0-56.89 56.89v455.11a56.889 56.889 0 0 0 56.89 56.89h625.778a56.889 56.889 0 0 0 56.888-56.89v-117.333zM497.778 583.111a99.556 99.556 0 1 0 0 199.111 99.556 99.556 0 0 0 0-199.11z m-199.111 0a71.111 71.111 0 1 0 0 142.222 71.111 71.111 0 0 0 0-142.222z m42.666-426.667a28.444 28.444 0 0 1 42.553-24.69l199.111 113.778a28.444 28.444 0 0 1 0 49.38L383.887 408.69A28.444 28.444 0 0 1 341.332 384v-227.556z m56.89 178.546l113.322-64.768-113.323-64.768V334.99z"  horiz-adv-x="1024" />

    
    <glyph glyph-name="shuzizhuanjibiaoshi" unicode="&#58885;" d="M512.073143 896a512 512 0 1 1 512-512 512 512 0 0 1-512 512zM482.011429 4.315429a350.061714 350.061714 0 0 0-349.696 349.622857 48.420571 48.420571 0 0 0 96.841142 0 253.001143 253.001143 0 0 1 252.708572-252.781715 48.420571 48.420571 0 0 0 0-96.841142z m30.061714 259.218285a120.466286 120.466286 0 0 0 0 240.932572 120.466286 120.466286 0 0 0 0-240.932572z m331.264 102.4a48.347429 48.347429 0 0 0-48.274286 48.420572 253.074286 253.074286 0 0 1-252.781714 252.781714 48.420571 48.420571 0 1 0 0 96.768 349.988571 349.988571 0 0 0 349.622857-349.549714 48.493714 48.493714 0 0 0-48.64-48.64z"  horiz-adv-x="1024" />

    
    <glyph glyph-name="Game" unicode="&#58897;" d="M356.693333 810.666667c17.536 0 31.36-13.994667 31.36-30.848 0-12.330667 10.496-22.186667 23.04-22.186667h41.429334c63.232-0.426667 114.773333-50.944 115.2-112.64v-7.808c39.722667 0 79.530667-0.810667 119.722666-1.194667 145.28 0 251.221333-103.594667 251.221334-246.613333v-183.765333c0-143.061333-105.941333-246.613333-251.221334-246.613334-58.197333-1.28-116.394667-1.664-175.018666-1.664s-117.674667 0.426667-175.872 1.664C191.274667-41.002667 85.333333 62.549333 85.333333 205.610667v183.722666c0 143.061333 105.941333 246.613333 251.648 246.613334 54.869333 0.853333 110.933333 1.706667 167.893334 1.706666v6.954667c0 28.373333-23.893333 51.370667-52.352 51.370667h-41.429334c-47.317333 0-85.845333 37.802667-85.845333 83.84 0 16.853333 14.250667 30.848 31.402667 30.848z m30.933334-408.149334a31.061333 31.061333 0 0 1-31.402667-30.848v-43.178666H311.893333a31.36 31.36 0 0 1-31.402666-30.805334c0-17.28 14.250667-30.848 31.402666-30.848h44.373334v-43.52c0-16.896 13.824-30.848 31.402666-30.848a31.36 31.36 0 0 1 31.402667 30.805334v43.562666h43.946667a31.061333 31.061333 0 0 1 31.445333 30.848 31.36 31.36 0 0 1-31.402667 30.805334h-43.946666v43.178666a31.36 31.36 0 0 1-31.445334 30.848z m329.130666-145.92H712.533333a30.805333 30.805333 0 1 1 0-61.653333h4.181334a31.061333 31.061333 0 0 1 31.402666 30.805333 31.36 31.36 0 0 1-31.402666 30.805334z m-71.594666 141.397334h-4.181334a30.805333 30.805333 0 1 1 0-61.653334h4.181334a31.061333 31.061333 0 0 1 31.402666 30.805334 31.36 31.36 0 0 1-31.402666 30.848z"  horiz-adv-x="1024" />

    


  </font>
</defs>
</svg>
